<svg class="svg-icon" style="width: 1em; height: 1em;vertical-align: middle;fill: currentColor;overflow: hidden;" viewBox="0 0 1024 1024" version="1.1" xmlns="http://www.w3.org/2000/svg"><path d="M341.333333 298.666667a85.333333 85.333333 0 0 1 85.333334 85.333333v213.333333a85.333333 85.333333 0 0 1-85.333334 85.333334 85.333333 85.333333 0 0 1-85.333333-85.333334V384a85.333333 85.333333 0 0 1 85.333333-85.333333m256 298.666666c0 126.72-92.16 232.106667-213.333333 252.586667V938.666667H298.666667v-88.746667c-121.173333-20.48-213.333333-125.866667-213.333334-252.586667h85.333334a170.666667 170.666667 0 0 0 170.666666 170.666667 170.666667 170.666667 0 0 0 170.666667-170.666667h85.333333m316.16-195.84l-180.906666 181.333334L775.68 426.666667H597.333333a85.333333 85.333333 0 0 1-85.333333-85.333334V170.666667a85.333333 85.333333 0 0 1 85.333333-85.333334h256a85.333333 85.333333 0 0 1 85.333334 85.333334v170.666666c0 23.466667-9.386667 44.8-25.173334 60.16z" fill="" /></svg>